<?xml version="1.0" encoding="UTF-8" standalone="no"?>
<!DOCTYPE svg PUBLIC "-//W3C//DTD SVG 1.1//EN" "http://www.w3.org/Graphics/SVG/1.1/DTD/svg11.dtd">
<svg width="100%" height="100%" viewBox="0 0 881 354" version="1.1" xmlns="http://www.w3.org/2000/svg" xmlns:xlink="http://www.w3.org/1999/xlink" xml:space="preserve" xmlns:serif="http://www.serif.com/" style="fill-rule:evenodd;clip-rule:evenodd;stroke-linejoin:round;stroke-miterlimit:2;">
    <g transform="matrix(1,0,0,1,-2344,-2568)">
        <g transform="matrix(1.80062,0,0,1.7916,2025.69,-836.678)">
            <g transform="matrix(0.555365,0,-0.0681903,0.55816,806.96,1304.78)">
                <g>
                    <g transform="matrix(1,0,0,0.786035,-1124.91,600.491)">
                        <path d="M882.044,656.456L884.459,593.569L902.579,593.569L900.516,634.997C900.516,634.997 899.82,647.651 895.842,652.272C890.423,658.567 882.044,656.456 882.044,656.456Z" style="fill:rgb(217,48,52);"/>
                    </g>
                    <g transform="matrix(1,0,0,0.646411,-1148.07,683.368)">
                        <path d="M899.659,669.283C899.659,669.283 899.579,643.16 891.351,635.105C882.72,626.654 883.387,615.177 883.387,615.177L884.016,602.493C884.274,597.304 886.922,593.569 890.342,593.569L902.579,593.569L899.659,669.283Z" style="fill:rgb(217,48,52);"/>
                    </g>
                    <g transform="matrix(1,0,0.122785,1,-1222,466)">
                        <path d="M881.377,750L874.446,789L941.786,789C941.786,789 961.855,789.119 973.16,785.168C983.464,781.566 1001.06,771.805 1004.03,756C1007.31,738.5 1000.83,727.231 993.099,718C985.24,708.614 967.921,698.327 963.435,693C959.716,688.584 960.04,682.711 969.169,682C970.642,681.885 1003.51,681.957 1003.51,681.957C1003.51,681.957 1010.87,681.413 1015.34,679C1018.87,677.093 1020.37,670.757 1020.37,670.757L1024.84,640L976.106,640C976.106,640 945.148,639.284 927.238,654C913.263,665.482 911.024,681.833 912.168,694C913.125,704.186 955.273,727.356 957.674,732C961.284,738.981 958.089,745.991 952.673,748C946.624,750.244 936.444,750 936.444,750L881.377,750ZM868.313,789L875.244,750L803.138,750C803.138,750 796.024,749.98 793.429,749C788.055,746.97 779.612,747.057 775.697,732C774.614,727.833 775.699,721 775.699,721L880.699,721C880.699,721 889.884,679.286 886.349,668.959C883.325,660.124 877.621,639.729 828.444,640C810.989,640.096 790.956,638.341 768.76,652.418C730.394,676.751 708.466,726 708.466,726L717.469,674C717.469,674 703.758,635.104 657.474,643C636.172,646.634 614.403,667 614.403,667L619.671,640L566.671,640C566.671,640 559.733,672.298 547.352,686C540.393,693.701 530.69,699 530.69,699C530.69,699 529.447,662.194 489.456,646C473.245,639.435 457.138,639.502 444.123,641C431.109,642.498 419.235,646.286 408.656,652C395.347,659.189 387.634,665.159 377.72,674C354.389,694.807 339.399,727 339.399,727C339.399,727 341.38,713.887 326.188,700.699C320.722,695.955 313.934,693 313.934,693C313.934,693 335.508,684.641 342.136,669C346.515,658.667 350.472,641.5 348.339,630C346.628,620.768 343.456,613.409 332.408,607C324.364,602.333 309.185,600.991 299.201,601.06C275.012,601.226 189.241,601.057 189.241,601.057L156,789C156,789 269.834,788.981 279.125,789C290.857,789.024 305.081,784.333 313.592,778C322.104,771.667 328.498,763.664 335.462,749C342.111,734.999 360.778,721 360.778,721C360.778,721 359.929,737.239 366.913,751C373.486,763.951 385.489,775.446 397.177,781C410.154,787.167 425.676,790.5 447.51,788C462.823,786.247 480.416,779.833 492.511,771C497.956,767.023 509.979,758.375 518.181,745C528.488,728.191 530.69,712 530.69,712C530.69,712 536.147,713.096 544.352,711.137C550.443,709.683 554.815,705 554.815,705L539.988,789L592.988,789C592.988,789 601.416,740.367 602.063,737C605.333,719.987 610.51,703.667 625.8,694C633.313,689.25 648.246,689.205 652.667,695C660.428,705.173 656.127,722.51 655.397,730C655.269,731.317 645,789 645,789L696.988,789C696.988,789 700.74,767.255 707.061,752C717.414,727.015 734.366,716 734.366,716C734.366,716 730.823,735.331 736.429,753C740.175,764.803 742.077,773.196 762.604,784C770.652,788.236 798.962,789 798.962,789L868.313,789ZM219.83,713L212.795,749.715C212.795,749.715 256.3,749.127 261.866,748.506C276.507,746.872 283.96,739.408 285.002,730.92C286.995,714.691 270.359,713 270.359,713L219.83,713ZM450.034,685.373C468.21,685.373 481.039,698.424 478.666,714.5C476.292,730.576 459.609,743.627 441.433,743.627C423.257,743.627 410.428,730.576 412.802,714.5C415.175,698.424 431.859,685.373 450.034,685.373ZM777.668,692.482L847.379,692.482C847.379,692.482 855.357,681.831 845.509,676C829.74,666.663 801.948,670.679 792.492,676C778.425,683.915 777.668,692.482 777.668,692.482ZM233.745,638L227.526,669.808C227.39,669.808 267.687,670.445 271.855,669.808C279.72,668.607 288.352,663.78 289.564,653.904C291.192,640.651 277.074,638 277.074,638L233.745,638Z" style="fill:rgb(50,75,148);"/>
                    </g>
                </g>
            </g>
            <g transform="matrix(1.60065,0,-0.224957,1.60871,-2284.93,798.934)">
                <text x="1650.33px" y="802.43px" style="font-family:'SourceHanSansSC-Heavy', 'Source Han Sans SC', sans-serif;font-weight:900;font-size:50px;fill:rgb(50,75,148);">博志生物科技</text>
            </g>
        </g>
    </g>
</svg>
