<?xml version="1.0" encoding="UTF-8" standalone="no"?>
<!DOCTYPE svg PUBLIC "-//W3C//DTD SVG 1.1//EN" "http://www.w3.org/Graphics/SVG/1.1/DTD/svg11.dtd">
<svg width="100%" height="100%" viewBox="0 0 291 291" version="1.1" xmlns="http://www.w3.org/2000/svg" xmlns:xlink="http://www.w3.org/1999/xlink" xml:space="preserve" xmlns:serif="http://www.serif.com/" style="fill-rule:evenodd;clip-rule:evenodd;stroke-linejoin:round;stroke-miterlimit:2;">
    <g transform="matrix(1,0,0,1,-6297,-6388)">
        <g transform="matrix(0.369975,0,0,0.706236,3977.01,6057.19)">
            <g transform="matrix(2.70288,0,0,1.41596,-9298.55,-8576.73)">
                <path d="M6050.48,6461.06C6050.48,6421.02 6017.97,6388.51 5977.93,6388.51L5832.84,6388.51C5792.8,6388.51 5760.29,6421.02 5760.29,6461.06L5760.29,6606.15C5760.29,6646.19 5792.8,6678.7 5832.84,6678.7L5977.93,6678.7C6017.97,6678.7 6050.48,6646.19 6050.48,6606.15L6050.48,6461.06Z" style="fill:rgb(0,102,218);"/>
                <clipPath id="_clip1">
                    <path d="M6050.48,6461.06C6050.48,6421.02 6017.97,6388.51 5977.93,6388.51L5832.84,6388.51C5792.8,6388.51 5760.29,6421.02 5760.29,6461.06L5760.29,6606.15C5760.29,6646.19 5792.8,6678.7 5832.84,6678.7L5977.93,6678.7C6017.97,6678.7 6050.48,6646.19 6050.48,6606.15L6050.48,6461.06Z"/>
                </clipPath>
                <g clip-path="url(#_clip1)">
                    <g transform="matrix(1,0,0,1,-346.329,-125.442)">
                        <path d="M6632.44,6464.14L6009.22,6464.14L6009.58,6602.63L6106.62,6757.35C6106.62,6757.35 6069.48,6669.15 6131.76,6626.04C6156.3,6609.06 6170.46,6608.86 6170.46,6608.86C6170.46,6608.86 6256.65,6622.78 6294.38,6622.78C6356.36,6622.78 6396.81,6607.66 6396.81,6607.66L6538.95,6624.27L6587.8,6595.68C6610.08,6564.86 6632.44,6464.14 6632.44,6464.14Z" style="fill:white;"/>
                    </g>
                    <g transform="matrix(1.98584,0.429594,-0.429594,1.98584,-8222.37,3147.35)">
                        <path d="M7177.24,120.762C7172,118.469 7168.44,113.132 7168.69,107.077C7169.02,99.201 7175.68,93.073 7183.55,93.401C7191.43,93.73 7197.56,100.39 7197.23,108.266C7197.19,109.254 7197.05,110.215 7196.82,111.139L7196.82,111.139C7196.82,111.139 7196.7,111.671 7196.4,112.511C7196.23,112.98 7196.04,113.437 7195.82,113.88C7194.82,115.99 7192.9,118.869 7189.41,120.832C7180.38,125.915 7163.22,127.012 7163.22,127.012C7163.22,127.012 7169.9,125.694 7177.24,120.762Z" style="fill:rgb(217,48,52);"/>
                    </g>
                    <g transform="matrix(0.421841,2.8776e-16,4.0518e-16,-0.567654,3412.84,10315)">
                        <path d="M5564.77,6672.1C5564.77,6672.1 5591.91,6715.72 5633.24,6736.84C5680.81,6761.16 5731.48,6768.42 5782.99,6767.1C5857.17,6765.18 5960.56,6745.58 6069.15,6743.54C6207.37,6740.95 6252.69,6751.89 6252.69,6751.89C6252.69,6751.89 6205.47,6738.55 6123.42,6729.88C6076.96,6724.97 6054.98,6722.84 5990.85,6721.09C5914.32,6719.02 5865.12,6723.57 5819.35,6729.81C5771.36,6736.34 5761.03,6739.34 5712.24,6739.83C5657.25,6740.38 5623.87,6720.43 5596.15,6701.32C5582.61,6691.99 5564.77,6672.1 5564.77,6672.1Z" style="fill:rgb(0,102,218);"/>
                    </g>
                </g>
            </g>
        </g>
    </g>
</svg>
