<?xml version="1.0" encoding="UTF-8" standalone="no"?>
<!DOCTYPE svg PUBLIC "-//W3C//DTD SVG 1.1//EN" "http://www.w3.org/Graphics/SVG/1.1/DTD/svg11.dtd">
<svg width="100%" height="100%" viewBox="0 0 634 635" version="1.1" xmlns="http://www.w3.org/2000/svg" xmlns:xlink="http://www.w3.org/1999/xlink" xml:space="preserve" xmlns:serif="http://www.serif.com/" style="fill-rule:evenodd;clip-rule:evenodd;stroke-linecap:round;stroke-linejoin:round;stroke-miterlimit:1.5;">
    <g transform="matrix(1,0,0,1,-3244,-1945)">
        <g id="ico" transform="matrix(1,0,0,1,-163.076,131.98)">
            <rect x="3407.26" y="1813.76" width="633.508" height="633.508" style="fill:none;"/>
            <g transform="matrix(0.97039,0,0,0.97039,127.389,-108.95)">
                <path d="M4006.33,2157.82C4006.33,2075.04 3939.13,2007.84 3856.35,2007.84L3556.4,2007.84C3473.63,2007.84 3406.42,2075.04 3406.42,2157.82L3406.42,2457.77C3406.42,2540.54 3473.63,2607.75 3556.4,2607.75L3856.35,2607.75C3939.13,2607.75 4006.33,2540.54 4006.33,2457.77L4006.33,2157.82Z" style="fill:none;stroke:rgb(0,102,218);stroke-width:51.53px;"/>
            </g>
            <g transform="matrix(1,0,0,1,130.504,-171.098)">
                <circle cx="3745.05" cy="2145.41" r="64.201" style="fill:rgb(217,48,52);"/>
            </g>
        </g>
    </g>
</svg>
