<?xml version="1.0" encoding="UTF-8" standalone="no"?>
<!DOCTYPE svg PUBLIC "-//W3C//DTD SVG 1.1//EN" "http://www.w3.org/Graphics/SVG/1.1/DTD/svg11.dtd">
<svg width="100%" height="100%" viewBox="0 0 245 245" version="1.1" xmlns="http://www.w3.org/2000/svg" xmlns:xlink="http://www.w3.org/1999/xlink" xml:space="preserve" xmlns:serif="http://www.serif.com/" style="fill-rule:evenodd;clip-rule:evenodd;stroke-linejoin:round;stroke-miterlimit:2;">
    <g transform="matrix(1,0,0,1,-9985,-6473)">
        <g transform="matrix(0.369975,0,0,0.706236,6935.01,6061.19)">
            <g transform="matrix(11.6142,0,0,6.05388,10991.7,-11402.5)">
                <g transform="matrix(0.232722,0,0,0.233893,-2276.19,1879.84)">
                    <path d="M9008.27,489.205C9008.27,455.547 8980.95,428.221 8947.29,428.221L8825.32,428.221C8791.66,428.221 8764.34,455.547 8764.34,489.205L8764.34,611.173C8764.34,644.831 8791.66,672.157 8825.32,672.157L8947.29,672.157C8980.95,672.157 9008.27,644.831 9008.27,611.173L9008.27,489.205Z" style="fill:rgb(0,102,218);"/>
                    <clipPath id="_clip1">
                        <path d="M9008.27,489.205C9008.27,455.547 8980.95,428.221 8947.29,428.221L8825.32,428.221C8791.66,428.221 8764.34,455.547 8764.34,489.205L8764.34,611.173C8764.34,644.831 8791.66,672.157 8825.32,672.157L8947.29,672.157C8980.95,672.157 9008.27,644.831 9008.27,611.173L9008.27,489.205Z"/>
                    </clipPath>
                    <g clip-path="url(#_clip1)">
                        <g transform="matrix(0.368126,2.39071e-16,4.12495e-16,-0.558666,6712.15,4286.53)">
                            <path d="M5564.77,6672.1C5564.77,6672.1 5591.91,6715.72 5633.24,6736.84C5680.81,6761.16 5731.48,6768.42 5782.99,6767.1C5857.17,6765.18 5960.56,6745.58 6069.15,6743.54C6207.37,6740.95 6252.69,6751.89 6252.69,6751.89C6252.69,6751.89 6205.47,6738.55 6123.42,6729.88C6076.96,6724.97 6054.98,6722.84 5990.85,6721.09C5914.32,6719.02 5865.12,6723.57 5819.35,6729.81C5771.36,6736.34 5761.03,6739.34 5712.24,6739.83C5657.25,6740.38 5623.87,6720.43 5596.15,6701.32C5582.61,6691.99 5564.77,6672.1 5564.77,6672.1Z" style="fill:white;"/>
                        </g>
                    </g>
                </g>
                <g transform="matrix(0.0597296,0,0,0.0600301,-243.364,1967.13)">
                    <path d="M885.377,750L878.446,789L945.786,789C945.786,789 965.855,789.119 977.16,785.168C987.464,781.566 1005.06,771.805 1008.03,756C1011.31,738.5 1004.83,727.231 997.099,718C989.24,708.614 971.921,698.327 967.435,693C963.716,688.584 964.04,682.711 973.169,682C978.642,681.574 1004.51,681.957 1004.51,681.957C1004.51,681.957 1010.87,681.953 1016.34,679C1021.81,676.047 1023.9,667.757 1023.9,667.757L1028.84,640L980.106,640C980.106,640 949.148,639.284 931.238,654C918.263,664.661 914.024,679.833 919.168,691C927.133,708.292 953.273,726.356 958.674,733C962.819,738.098 964.089,745.249 956.673,748C951.257,750.009 940.444,750 940.444,750L885.377,750ZM868.023,789L874.954,750L803.138,750C803.138,750 796.803,750.03 791.429,749C784.055,747.586 777.312,743.057 774.697,733C773.614,728.833 774.901,723.333 774.901,723.333L879.901,723.333C879.901,723.333 890.444,693.583 885.349,671.959C882.657,660.534 868.371,646.945 845.918,643.636C842.985,643.203 812.551,638.115 785.516,649.392C774.229,654.101 765.569,658.68 756.296,666.652C723.568,694.788 705.804,742.332 705.804,742.332L712.579,706.332C712.579,706.332 711.581,672.293 671.812,662.32C641.316,654.672 612.486,679.958 612.486,679.958L616.313,658.239C616.313,658.239 611.978,658.783 590.141,657.304C581.501,656.719 563.251,653.819 563.251,653.819C563.251,653.819 559.647,677.342 550.481,689.095C539.496,703.182 530.69,703.666 530.69,703.666C530.69,703.666 529.447,662.194 489.456,646C473.245,639.435 457.138,639.502 444.123,641C431.109,642.498 419.235,646.286 408.656,652C395.347,659.189 387.634,665.159 377.72,674C354.389,694.807 339.399,727 339.399,727C339.399,727 341.38,713.887 326.188,700.699C320.722,695.955 313.934,693 313.934,693C313.934,693 328.508,686.641 335.136,671C339.515,660.667 342.721,647.451 340.339,636C338.628,627.768 333.456,616.355 320.408,609C312.307,604.433 298.185,600.991 288.201,601.06C271.694,601.174 232.531,601.131 209.321,601.092C198.824,601.081 189.836,608.611 188.008,618.947C179.705,665.89 157.931,789 157.931,789C157.931,789 269.834,788.981 279.125,789C290.857,789.024 305.081,784.333 313.592,778C322.104,771.667 328.498,763.664 335.462,749C342.111,734.999 360.778,721 360.778,721C360.778,721 359.929,737.239 366.913,751C373.486,763.951 385.489,775.446 397.177,781C410.154,787.167 425.676,790.5 447.51,788C462.823,786.247 480.416,779.833 492.511,771C497.956,767.023 509.979,758.375 518.181,745C528.488,728.191 530.69,712 530.69,712C530.69,712 536.147,713.096 544.352,711.137C550.443,709.683 554.815,705 554.815,705L539.988,789C539.988,789 558.355,789 573.465,789C584.661,789 594.237,780.952 596.164,769.922C597.618,761.217 599.088,752.48 599.397,750.875C602.667,733.862 605.844,719.999 621.134,710.332C628.647,705.582 641.291,705.537 648,714.332C655.761,724.505 651.461,738.843 650.731,746.332C650.602,747.649 645,789 645,789C645,789 663.257,789 678.307,789C689.165,789 698.639,781.632 701.312,771.108C702.661,764.846 704.603,757.932 707.061,752C717.414,727.015 734.366,716 734.366,716C734.366,716 730.823,735.331 736.429,753C740.175,764.803 747.077,774.301 763.604,783C774.652,788.815 798.962,789 798.962,789L868.023,789ZM239.508,708C228.668,708 219.38,715.753 217.442,726.418C215.252,738.472 212.795,752 212.795,752C212.795,752 253.3,752.35 260.866,751.506C275.507,749.872 285.848,743.293 288.002,732.92C291.787,714.691 278.559,708.457 268.318,708C266.205,707.906 263.444,708 263.444,708L239.508,708ZM450.034,685.373C468.21,685.373 481.039,698.424 478.666,714.5C476.292,730.576 459.609,743.627 441.433,743.627C423.257,743.627 410.428,730.576 412.802,714.5C415.175,698.424 431.859,685.373 450.034,685.373ZM776.841,695.339L852.08,695.339C852.08,695.339 859.53,681.932 849.404,675.385C835.967,666.696 810.648,669.508 797.526,675.579C780.447,683.481 776.841,695.339 776.841,695.339ZM252.895,636C241.854,636 232.44,644.004 230.663,654.901C229.191,663.935 227.744,672.808 227.744,672.808C227.608,672.808 267.895,673.375 272.073,672.808C280.938,671.607 289.937,664.158 291.564,650.904C292.823,640.651 281.905,636 277.074,636C276.076,636 272.937,636 272.937,636L252.895,636Z" style="fill:white;"/>
                </g>
                <g transform="matrix(0.451886,0.121692,-0.121083,0.45416,-3426.85,1072.68)">
                    <path d="M7177.24,120.762C7172,118.469 7168.44,113.132 7168.69,107.077C7169.02,99.201 7175.68,93.073 7183.55,93.401C7191.43,93.73 7197.56,100.39 7197.23,108.266C7197.19,109.254 7197.05,110.215 7196.82,111.139L7196.82,111.139C7196.82,111.139 7196.7,111.671 7196.4,112.511C7196.23,112.98 7196.04,113.437 7195.82,113.88C7194.82,115.99 7192.9,118.869 7189.41,120.832C7180.38,125.915 7163.22,127.012 7163.22,127.012C7163.22,127.012 7169.9,125.694 7177.24,120.762Z" style="fill:white;"/>
                </g>
                <g transform="matrix(0.381915,0,0,0.383837,-2937.31,1954.38)">
                    <path d="M7177.24,120.762C7172,118.469 7168.44,113.132 7168.69,107.077C7169.02,99.201 7175.68,93.073 7183.55,93.401C7191.43,93.73 7197.56,100.39 7197.23,108.266C7197.19,109.254 7197.05,110.215 7196.82,111.139L7196.82,111.139C7196.82,111.139 7196.7,111.671 7196.4,112.511C7196.23,112.98 7196.04,113.437 7195.82,113.88C7194.82,115.99 7192.9,118.869 7189.41,120.832C7180.38,125.915 7163.22,127.012 7163.22,127.012C7163.22,127.012 7169.9,125.694 7177.24,120.762Z" style="fill:rgb(217,48,52);"/>
                </g>
            </g>
        </g>
    </g>
</svg>
